HIERARCHY
ROOT Root
{
	OFFSET 0.00000 0.00000 0.00000
	CHANNELS 6 Xposition Yposition Zposition Zrotation Xrotation Yrotation
	JOINT Hips
	{
		OFFSET 0 0 0	
		CHANNELS 3 Zrotation Xrotation Yrotation
		JOINT Spine
		{
			OFFSET 0 4 0	
			CHANNELS 3 Zrotation Xrotation Yrotation
			JOINT Spine1
			{
				OFFSET 0 19.4 0	
				CHANNELS 3 Zrotation Xrotation Yrotation
				JOINT Spine2
				{
					OFFSET 0 16.6 0	
					CHANNELS 3 Zrotation Xrotation Yrotation
					JOINT LeftCollar
					{
						OFFSET 0 10 0	
						CHANNELS 3 Zrotation Xrotation Yrotation
						JOINT LeftArm
						{
							OFFSET 15.6 -2 3	
							CHANNELS 3 Zrotation Xrotation Yrotation
							JOINT LeftForeArm
							{
								OFFSET 3.5 -27 -1	
								CHANNELS 3 Zrotation Xrotation Yrotation
								JOINT LeftHand
								{
									OFFSET 1 -27 1	
									CHANNELS 3 Zrotation Xrotation Yrotation
									End Site
									{
										OFFSET 0 -15 0
									}
								}
							}
						}
					}
					JOINT RightCollar
					{
						OFFSET 0 10 0	
						CHANNELS 3 Zrotation Xrotation Yrotation
						JOINT RightArm
						{
							OFFSET -15.6 -2 3	
							CHANNELS 3 Zrotation Xrotation Yrotation
							JOINT RightForeArm
							{
								OFFSET -3.5 -27 -1	
								CHANNELS 3 Zrotation Xrotation Yrotation
								JOINT RightHand
								{
									OFFSET -1 -27 1	
									CHANNELS 3 Zrotation Xrotation Yrotation
									End Site
									{
										OFFSET 0 -15 0
									}
								}
							}
						}
					}
					JOINT Neck
					{
						OFFSET 0 10 0	
						CHANNELS 3 Zrotation Xrotation Yrotation
						JOINT Head
						{
							OFFSET 0 12.7 3	
							CHANNELS 3 Zrotation Xrotation Yrotation
							End Site
							{
								OFFSET 0 12.7 3
							}
						}
					}
				}
			}
		}
	}
	JOINT LeftHip
	{
		OFFSET 0 0 0	
		CHANNELS 3 Zrotation Xrotation Yrotation
		JOINT LeftUpLeg
		{
			OFFSET 8.8 -6 0	
			CHANNELS 3 Zrotation Xrotation Yrotation
			JOINT LeftLeg
			{
				OFFSET 0 -39 2	
				CHANNELS 3 Zrotation Xrotation Yrotation
				JOINT LeftFoot
				{
					OFFSET 0 -43 -2	
					CHANNELS 3 Zrotation Xrotation Yrotation
					JOINT LeftFootFront
					{
						OFFSET 0 -7 8.5	
						CHANNELS 3 Zrotation Xrotation Yrotation
						End Site
						{
							OFFSET 0 -0.5 9
						}
					}
				}
				JOINT LeftHeel
				{
					OFFSET 0 -43 -2	
					CHANNELS 3 Zrotation Xrotation Yrotation
					End Site
					{
						OFFSET 0 -7.5 -5
					}
				}
			}
		}
	}
	JOINT RightHip
	{
		OFFSET 0 0 0	
		CHANNELS 3 Zrotation Xrotation Yrotation
		JOINT RightUpLeg
		{
			OFFSET -8.8 -6 0	
			CHANNELS 3 Zrotation Xrotation Yrotation
			JOINT RightLeg
			{
				OFFSET 0 -39 2	
				CHANNELS 3 Zrotation Xrotation Yrotation
				JOINT RightFoot
				{
					OFFSET 0 -43 -2	
					CHANNELS 3 Zrotation Xrotation Yrotation
					JOINT RightFootFront
					{
						OFFSET 0 -7 8.5	
						CHANNELS 3 Zrotation Xrotation Yrotation
						End Site
						{
							OFFSET 0 -0.5 9
						}
					}
				}
				JOINT RightHeel
				{
					OFFSET 0 -43 -2	
					CHANNELS 3 Zrotation Xrotation Yrotation
					End Site
					{
						OFFSET 0 -7.5 -5
					}
				}
			}
		}
	}
}
MOTION
Frames: 13
Frame Time: 0.05
-2.3668 56.77 5.5878 -0 0 -0 -3.8435 12.142 20.74 -0.72435 -2.2169 -7.2633 -0.72435 -2.2169 -7.2633 -0.58959 -1.8686 -6.0987 -0 0 -0 17.668 -33.724 -10.244 18.68 -11.818 13.084 59.373 -49.21 -27.059 -0 0 -0 -3.0072 -16.046 -35.755 73.205 -29.391 39.965 -46.235 -15.066 28.62 0.65661 -1.3505 2.1821 0.65662 -1.3505 2.1821 -3.8435 12.142 20.74 89.256 -56.27 74.389 -118.66 52.319 35.291 26.628 5.8459 58.876 0.0032651 -0.20303 -0.0049167 -0 0 -0 -3.8435 12.142 20.74 -150.4 -79.395 -169.65 -41.741 81.908 47.436 -7.8741 -11.484 -14.237 0.0053276 0.0017647 -0.0029479 -0 0 -0 
-2.3846 56.773 5.6045 -0 0 -0 -3.8064 12.107 20.766 -0.73476 -2.1869 -7.2391 -0.73476 -2.1869 -7.239 -0.59866 -1.8435 -6.0784 -0 0 -0 17.597 -33.781 -10.322 18.639 -11.849 13.25 59.227 -49.396 -27.405 -0 0 -0 -2.8111 -15.893 -35.597 73.159 -28.809 40.501 -47.259 -13.195 30.413 0.56577 -1.4276 2.2461 0.56576 -1.4276 2.2461 -3.8064 12.107 20.766 89.092 -56.282 74.24 -118.62 52.345 35.202 26.626 5.8478 58.89 0.0057922 -0.19738 -0.0094786 -0 0 -0 -3.8064 12.107 20.766 -150.27 -79.419 -169.5 -41.861 81.887 47.545 -7.862 -11.474 -14.248 -0.0038393 -0.007459 0.0017021 -0 0 -0 
-2.4043 56.774 5.6174 -0 0 -0 -3.7858 12.116 20.787 -0.69601 -2.2322 -7.3128 -0.69601 -2.2322 -7.3128 -0.56553 -1.8813 -6.1404 -0 0 -0 17.598 -33.451 -10.088 18.647 -11.971 13.28 60.59 -49.579 -26.148 -0 0 -0 -2.6405 -16.025 -35.184 74.373 -29.765 41.576 -47.21 -12.717 30.788 0.47221 -1.2362 2.4813 0.47221 -1.2362 2.4813 -3.7858 12.116 20.787 89.179 -56.277 74.334 -118.69 52.358 35.235 26.595 5.8442 58.904 0.0072904 -0.19383 -0.0078623 -0 0 -0 -3.7858 12.116 20.787 -150.2 -79.395 -169.41 -41.831 81.88 47.515 -7.8657 -11.461 -14.244 -0.0050312 -0.0019048 0.0034872 -0 0 -0 
-2.4217 56.775 5.629 -0 0 -0 -3.7672 12.126 20.777 -0.66978 -2.1069 -7.2256 -0.66978 -2.1069 -7.2256 -0.54479 -1.7757 -6.0674 -0 0 -0 17.478 -33.908 -10.149 18.629 -12.046 13.225 62.274 -49.837 -24.659 -0 0 -0 -2.7259 -16.377 -35.521 74.327 -29.424 41.024 -47.147 -14.433 30.03 0.55166 -1.2753 2.4117 0.55166 -1.2753 2.4117 -3.7672 12.126 20.777 89.272 -56.258 74.457 -118.72 52.388 35.223 26.545 5.8685 58.936 0.012962 -0.18273 -0.001627 -0 0 -0 -3.7672 12.126 20.777 -150.13 -79.394 -169.32 -41.667 81.881 47.363 -7.8784 -11.453 -14.229 0.0036361 0.0048072 0.0022441 -0 0 -0 
-2.4334 56.777 5.6417 -0 0 -0 -3.7656 12.096 20.756 -0.7181 -2.0912 -7.1426 -0.7181 -2.0912 -7.1426 -0.58571 -1.7629 -5.9976 -0 0 -0 17.404 -34.232 -10.427 18.562 -11.755 12.907 63.841 -49.802 -23.196 -0 0 -0 -2.7008 -16.154 -35.614 73.916 -28.721 40.712 -47.323 -16.22 27.598 0.65735 -1.2459 2.3765 0.65735 -1.2459 2.3765 -3.7656 12.096 20.756 89.178 -56.253 74.394 -118.74 52.452 35.216 26.563 5.8677 58.984 0.0079101 -0.18241 0.0080556 -0 0 -0 -3.7656 12.096 20.756 -150.1 -79.431 -169.3 -41.661 81.884 47.368 -7.878 -11.453 -14.232 0.004332 0.0069677 0.00093814 -0 0 -0 
-2.4383 56.781 5.6569 -0 0 -0 -3.8026 12.084 20.752 -0.75534 -2.1258 -7.1039 -0.75534 -2.1258 -7.1039 -0.6168 -1.7922 -5.965 -0 0 -0 17.433 -34.125 -11.002 18.621 -11.527 13.087 63.917 -49.574 -23.156 -0 0 -0 -2.4972 -16.228 -35.746 73.692 -28.677 40.442 -47.177 -17.828 26.199 0.70305 -1.1765 2.4573 0.70305 -1.1765 2.4573 -3.8026 12.084 20.752 89.163 -56.254 74.325 -118.72 52.467 35.17 26.577 5.8511 59.034 -0.0065617 -0.17873 -0.00085214 -0 0 -0 -3.8026 12.084 20.752 -150.2 -79.445 -169.44 -41.671 81.871 47.367 -7.8637 -11.446 -14.235 -0.0016162 -0.0078007 0.00022433 -0 0 -0 
-2.4381 56.784 5.6743 -0 0 -0 -3.817 12.096 20.752 -0.7253 -2.0967 -7.0969 -0.7253 -2.0967 -7.0969 -0.59183 -1.7675 -5.9592 -0 0 -0 17.318 -34.126 -11.071 18.748 -11.633 13.367 62.626 -49.631 -24.579 -0 0 -0 -2.502 -16.839 -35.78 74.038 -29.331 40.697 -47.439 -15.973 27.977 0.64824 -1.1614 2.5831 0.64824 -1.1614 2.5831 -3.817 12.096 20.752 89.18 -56.239 74.305 -118.73 52.447 35.131 26.588 5.8379 59.062 -0.0092962 -0.17896 -0.0068671 -0 0 -0 -3.817 12.096 20.752 -150.26 -79.438 -169.47 -41.49 81.868 47.185 -7.8511 -11.438 -14.237 -0.0031972 -0.0051858 0.0029737 -0 0 -0 
-2.436 56.785 5.6928 -0 0 -0 -3.8185 12.09 20.773 -0.74623 -2.0613 -7.0799 -0.74623 -2.0613 -7.0799 -0.60974 -1.7379 -5.9449 -0 0 -0 17.307 -34.29 -10.811 18.661 -11.663 13.193 61.266 -49.608 -26.086 -0 0 -0 -2.7199 -16.938 -35.722 74.198 -30.399 41.347 -47.246 -13.614 29.464 0.66639 -1.1015 2.6512 0.66639 -1.1015 2.6512 -3.8185 12.09 20.773 89.168 -56.229 74.282 -118.78 52.424 35.107 26.617 5.8451 59.077 -0.0057739 -0.17038 -0.0057373 -0 0 -0 -3.8185 12.09 20.773 -150.17 -79.432 -169.36 -41.42 81.867 47.121 -7.8379 -11.434 -14.247 -0.0010286 -0.0042839 0.0047176 -0 0 -0 
-2.4356 56.782 5.7117 -0 0 -0 -3.8309 12.072 20.797 -0.81475 -1.9934 -6.9684 -0.81475 -1.9934 -6.9684 -0.66813 -1.6814 -5.8512 -0 0 -0 17.356 -34.473 -11.201 18.664 -11.677 13.276 60.143 -49.47 -27.241 -0 0 -0 -2.6849 -16.746 -36.212 73.267 -29.669 40.496 -47.723 -13.123 31.701 0.70354 -1.1166 2.6459 0.70354 -1.1166 2.6459 -3.8309 12.072 20.797 89.143 -56.237 74.326 -118.86 52.477 35.157 26.65 5.8605 59.088 0.0087607 -0.16853 -0.0048828 -0 0 -0 -3.8309 12.072 20.797 -150.11 -79.453 -169.3 -41.427 81.844 47.118 -7.8185 -11.437 -14.255 -0.01317 0.0012735 0.0037689 -0 0 -0 
-2.4391 56.774 5.7311 -0 0 -0 -3.8372 12.054 20.81 -0.82135 -1.9977 -6.9206 -0.82135 -1.9977 -6.9206 -0.67375 -1.685 -5.811 -0 0 -0 17.166 -34.48 -11.257 18.689 -11.768 13.334 60.633 -49.764 -26.822 -0 0 -0 -2.5141 -16.684 -36.223 73.946 -29.933 41.809 -48.363 -11.204 32.454 0.53338 -0.9586 2.9011 0.53338 -0.9586 2.9011 -3.8372 12.054 20.81 89.072 -56.241 74.291 -118.87 52.54 35.135 26.657 5.8658 59.11 0.0027268 -0.16841 5.7515e-05 -0 0 -0 -3.8372 12.054 20.81 -150.06 -79.464 -169.26 -41.397 81.839 47.077 -7.8264 -11.428 -14.254 -0.014149 0.00063855 0.0012266 -0 0 -0 
-2.4469 56.762 5.751 -0 0 -0 -3.8226 12.055 20.809 -0.83995 -1.9843 -6.9001 -0.83995 -1.9843 -6.9001 -0.68954 -1.6738 -5.7937 -0 0 -0 17.191 -34.478 -11.244 18.626 -11.796 13.32 62.053 -49.888 -25.436 -0 0 -0 -2.1107 -16.808 -36.291 74.678 -30.65 42.303 -47.678 -12.037 31.021 0.47479 -0.65835 3.1965 0.47479 -0.65835 3.1965 -3.8226 12.055 20.809 89.127 -56.221 74.304 -118.91 52.529 35.125 26.631 5.8466 59.145 -0.0077885 -0.16685 -0.0014529 -0 0 -0 -3.8226 12.055 20.809 -149.95 -79.442 -169.17 -41.498 81.854 47.188 -7.8645 -11.425 -14.239 0.011423 -0.0044357 -0.0019009 -0 0 -0 
-2.4576 56.748 5.7718 -0 0 -0 -3.801 12.073 20.784 -0.84229 -1.9587 -6.9016 -0.84229 -1.9587 -6.9016 -0.69171 -1.6523 -5.795 -0 0 -0 17.142 -34.736 -11.2 18.571 -11.666 13.257 63.263 -49.993 -24.352 -0 0 -0 -1.9813 -16.917 -36.344 74.628 -30.138 41.434 -47.65 -13.91 29.111 0.42843 -0.42113 3.439 0.42843 -0.42113 3.439 -3.801 12.073 20.784 89.225 -56.19 74.429 -119.05 52.519 35.212 26.635 5.8455 59.183 0.007031 -0.17115 -0.0029371 -0 0 -0 -3.801 12.073 20.784 -149.91 -79.437 -169.14 -41.526 81.864 47.238 -7.886 -11.445 -14.223 0.020053 0.0088017 -0.00041039 -0 0 -0 
-2.4697 56.737 5.7924 -0 0 -0 -3.7892 12.075 20.743 -0.82897 -2.0128 -6.9363 -0.82897 -2.0128 -6.9363 -0.67999 -1.6977 -5.8241 -0 0 -0 17.041 -34.672 -11.174 18.66 -11.522 13.07 63.591 -49.763 -24.077 -0 0 -0 -2.0591 -16.907 -36.046 74.283 -29.711 40.832 -47.511 -15.245 26.786 0.36955 -0.19463 3.6231 0.36955 -0.19463 3.6231 -3.7892 12.075 20.743 89.284 -56.149 74.517 -119.19 52.531 35.308 26.66 5.8478 59.226 0.022357 -0.1772 0.0079293 -0 0 -0 -3.7892 12.075 20.743 -150.03 -79.466 -169.26 -41.616 81.87 47.341 -7.876 -11.463 -14.224 0.012587 0.0077371 0.00098376 -0 0 -0 
